<?xml version="1.0" encoding="UTF-8" standalone="no"?>
<!-- Generator: Adobe Illustrator 25.0.1, SVG Export Plug-In . SVG Version: 6.00 Build 0)  -->

<svg
   xmlns:dc="http://purl.org/dc/elements/1.1/"
   xmlns:cc="http://creativecommons.org/ns#"
   xmlns:rdf="http://www.w3.org/1999/02/22-rdf-syntax-ns#"
   xmlns:svg="http://www.w3.org/2000/svg"
   xmlns="http://www.w3.org/2000/svg"
   xmlns:sodipodi="http://sodipodi.sourceforge.net/DTD/sodipodi-0.dtd"
   xmlns:inkscape="http://www.inkscape.org/namespaces/inkscape"
   version="1.0"
   viewBox="0 0 431.99999 139.60001"
   xml:space="preserve"
   id="svg3729"
   sodipodi:docname="Visa New 2021.svg"
   width="432"
   height="139.60001"
   inkscape:version="0.92.4 (5da689c313, 2019-01-14)"><metadata
   id="metadata3735"><rdf:RDF><cc:Work
       rdf:about=""><dc:format>image/svg+xml</dc:format><dc:type
         rdf:resource="http://purl.org/dc/dcmitype/StillImage" /><dc:title></dc:title></cc:Work></rdf:RDF></metadata><defs
   id="defs3733" /><sodipodi:namedview
   pagecolor="#ffffff"
   bordercolor="#666666"
   borderopacity="1"
   objecttolerance="10"
   gridtolerance="10"
   guidetolerance="10"
   inkscape:pageopacity="0"
   inkscape:pageshadow="2"
   inkscape:window-width="1920"
   inkscape:window-height="1017"
   id="namedview3731"
   showgrid="false"
   inkscape:zoom="1.8571127"
   inkscape:cx="411.20001"
   inkscape:cy="116.24"
   inkscape:window-x="3832"
   inkscape:window-y="-8"
   inkscape:window-maximized="1"
   inkscape:current-layer="svg3729" />
<path
   d="m 223.4,44.6 c -0.2,19.4 17.3,30.3 30.5,36.7 13.6,6.6 18.2,10.9 18.1,16.8 -0.1,9.1 -10.8,13 -20.9,13.2 -17.5,0.3 -27.7,-4.7 -35.8,-8.5 l -6.3,29.6 c 8.1,3.7 23.2,7 38.8,7.2 36.7,0 60.6,-18.1 60.8,-46.2 0.1,-35.6 -49.3,-37.6 -48.9,-53.5 0.1,-4.8 4.7,-10 14.8,-11.3 5,-0.7 18.8,-1.2 34.4,6 L 315,6 C 306.6,2.9 295.8,0 282.3,0 247.9,0 223.6,18.4 223.4,44.6 M 374,2.5 c -6.7,0 -12.3,3.9 -14.9,9.9 l -52.4,125 h 36.6 l 7.3,-20.1 h 44.8 l 4.2,20.1 H 432 L 403.8,2.5 Z m 5.1,36.5 10.6,50.7 h -29 z M 179,2.5 150.1,137.4 H 185 L 213.9,2.5 Z M 127.4,2.5 91,94.4 76.3,16.3 C 74.6,7.6 67.8,2.5 60.2,2.5 H 0.8 L 0,6.4 c 12.2,2.6 26,6.9 34.4,11.5 5.1,2.8 6.6,5.2 8.3,11.9 l 27.8,107.7 h 36.9 L 164,2.5 Z"
   style="clip-rule:evenodd;fill:#1a1f71;fill-rule:evenodd" />
</svg>